<?xml version="1.0"?>
<svg xmlns="http://www.w3.org/2000/svg" xmlns:xlink="http://www.w3.org/1999/xlink" xmlns:svgjs="http://svgjs.com/svgjs" version="1.1" width="512" height="512" x="0" y="0" viewBox="0 0 512 512" style="enable-background:new 0 0 512 512" xml:space="preserve" class=""><g><path xmlns="http://www.w3.org/2000/svg" d="m324.052 268h76.896v15.999h-76.896z" fill="#de9400" transform="matrix(.351 -.936 .936 .351 -23.216 518.498)" data-original="#de9400" style="" class=""/><path xmlns="http://www.w3.org/2000/svg" d="m429.5 237.552h15.999v76.896h-15.999z" fill="#de9400" transform="matrix(.936 -.351 .351 .936 -69.054 171.19)" data-original="#de9400" style="" class=""/><path xmlns="http://www.w3.org/2000/svg" d="m76.07422 225.74023-14.31055-7.15523 37.543-75.08545a8.00012 8.00012 0 0 1 14.50879.42627l32.17871 75.08545-14.707 6.30273-25.38379-59.231z" fill="#de9400" data-original="#de9400" style="" class=""/><path xmlns="http://www.w3.org/2000/svg" d="m184 456h144a32 32 0 0 1 32 32 0 0 0 0 1 0 0h-208a0 0 0 0 1 0 0 32 32 0 0 1 32-32z" fill="#f6bb00" data-original="#f6bb00" style="" class=""/><path xmlns="http://www.w3.org/2000/svg" d="m280 456v-40l-8-16h-32l-8 16v40z" fill="#eda600" data-original="#eda600" style="" class=""/><path xmlns="http://www.w3.org/2000/svg" d="m240 368h32v32h-32z" fill="#de9400" data-original="#de9400" style="" class=""/><path xmlns="http://www.w3.org/2000/svg" d="m240 368-8-16v-248l8-16h32l8 16v248l-8 16z" fill="#eda600" data-original="#eda600" style="" class=""/><path xmlns="http://www.w3.org/2000/svg" d="m240 56h32v32h-32z" fill="#de9400" data-original="#de9400" style="" class=""/><path xmlns="http://www.w3.org/2000/svg" d="m240 56-16-32h64l-16 32z" fill="#f6bb00" data-original="#f6bb00" style="" class=""/><path xmlns="http://www.w3.org/2000/svg" d="m232 264h48v16h-48z" fill="#de9400" data-original="#de9400" style="" class=""/><path xmlns="http://www.w3.org/2000/svg" d="m328 400h144a0 0 0 0 1 0 0 32 32 0 0 1 -32 32h-80a32 32 0 0 1 -32-32 0 0 0 0 1 0 0z" fill="#f6bb00" data-original="#f6bb00" style="" class=""/><path xmlns="http://www.w3.org/2000/svg" d="m24 296h160a0 0 0 0 1 0 0 32 32 0 0 1 -32 32h-96a32 32 0 0 1 -32-32 0 0 0 0 1 0 0z" fill="#f6bb00" data-original="#f6bb00" style="" class=""/><path xmlns="http://www.w3.org/2000/svg" d="m312 304h176v96h-176z" fill="#02c26a" data-original="#02c26a" style="" class=""/><path xmlns="http://www.w3.org/2000/svg" d="m376 304h48v96h-48z" fill="#d1e4ff" data-original="#d1e4ff" style="" class=""/><g xmlns="http://www.w3.org/2000/svg" fill="#00b55b"><path d="m336 328h40v16h-40z" fill="#00b55b" data-original="#00b55b" style=""/><path d="m336 360h40v16h-40z" fill="#00b55b" data-original="#00b55b" style=""/><path d="m424 328h64v16h-64z" fill="#00b55b" data-original="#00b55b" style=""/><path d="m424 360h64v16h-64z" fill="#00b55b" data-original="#00b55b" style=""/><path d="m392 304a24 24 0 0 0 24-24v-24h64v24a24 24 0 0 1 -24 24z" fill="#00b55b" data-original="#00b55b" style=""/></g><path xmlns="http://www.w3.org/2000/svg" d="m56 216h96v80h-96z" fill="#548aff" data-original="#548aff" style="" class=""/><path xmlns="http://www.w3.org/2000/svg" d="m88 216v40l16-16 16 16v-40z" fill="#7dafff" data-original="#7dafff" style="" class=""/><path xmlns="http://www.w3.org/2000/svg" d="m416.3456 256-86.77915-28.69347-40.55145-36.84589a113.09288 113.09288 0 0 0 -40.54936-23.674 113.09308 113.09308 0 0 0 -46.66938-5.16487l-54.52326 5.40954-98.74227-32.64907 10.04587-30.38224 83.55116 27.62614 75.0078-13.65019a94.11968 94.11968 0 0 1 46.39882 3.23736 94.11972 94.11972 0 0 1 39.18311 25.06024l52.08591 55.67365 83.55116 27.62614-8.73791 26.42666" fill="#f6bb00" data-original="#f6bb00" style="" class=""/></g></svg>
